<?xml version="1.0" encoding="UTF-8"?>
<svg width="41px" height="41px" viewBox="0 0 41 41" version="1.1" xmlns="http://www.w3.org/2000/svg" xmlns:xlink="http://www.w3.org/1999/xlink">
    <!-- Generator: Sketch 43.2 (39069) - http://www.bohemiancoding.com/sketch -->
    <title>Group 2</title>
    <desc>Created with Sketch.</desc>
    <defs></defs>
    <g id="sub-pages" stroke="none" stroke-width="1" fill="none" fill-rule="evenodd">
        <g id="team-page-v.2---detail" transform="translate(-1212.000000, -34.000000)" fill="#222222">
            <g id="Group-2" transform="translate(1212.000000, 34.000000)">
                <path d="M0.478567305,39.7788956 C-0.161953275,39.138375 -0.155420931,38.0933537 0.473556683,37.464376 L37.4594102,0.478522556 C38.0971635,-0.159230735 39.1289436,-0.161452995 39.7739298,0.483533177 L39.7739298,0.483533177 C40.4144503,1.12405376 40.407918,2.16907515 39.7789404,2.79805276 L2.79308689,39.7839062 C2.1553336,40.4216595 1.12355348,40.4238818 0.478567305,39.7788956 L0.478567305,39.7788956" id="Rectangle-4"></path>
                <path d="M0.483533177,0.478567305 C1.12405376,-0.161953275 2.16907515,-0.155420931 2.79805276,0.473556683 L39.7839062,37.4594102 C40.4216595,38.0971635 40.4238818,39.1289436 39.7788956,39.7739298 L39.7788956,39.7739298 C39.138375,40.4144503 38.0933537,40.407918 37.464376,39.7789404 L0.478522556,2.79308689 C-0.159230735,2.1553336 -0.161452995,1.12355348 0.483533177,0.478567305 L0.483533177,0.478567305" id="Rectangle-4"></path>
            </g>
        </g>
    </g>
</svg>